<svg width="657" height="643" viewBox="0 0 657 643" fill="none" xmlns="http://www.w3.org/2000/svg">
<path fill-rule="evenodd" clip-rule="evenodd" d="M66.0003 238.5C48.7435 238.5 34.75 252.491 34.75 269.75C34.75 283.557 43.7042 295.271 56.1208 299.404C57.6826 299.693 58.256 298.726 58.256 297.9C58.256 297.155 58.227 294.693 58.2136 292.082C49.5197 293.972 47.6852 288.395 47.6852 288.395C46.2637 284.783 44.2154 283.822 44.2154 283.822C41.3801 281.883 44.4292 281.923 44.4292 281.923C47.5672 282.143 49.2196 285.143 49.2196 285.143C52.0068 289.921 56.5302 288.539 58.3134 287.741C58.5939 285.721 59.4038 284.342 60.2975 283.562C53.3564 282.772 46.0598 280.092 46.0598 268.118C46.0598 264.706 47.2805 261.919 49.2796 259.73C48.9551 258.943 47.8855 255.765 49.5823 251.46C49.5823 251.46 52.2065 250.62 58.1784 254.663C60.6711 253.971 63.3445 253.624 66.0003 253.612C68.656 253.624 71.3315 253.971 73.8289 254.663C79.7935 250.62 82.414 251.46 82.414 251.46C84.115 255.765 83.0449 258.943 82.7204 259.73C84.7241 261.919 85.9366 264.706 85.9366 268.118C85.9366 280.121 78.626 282.764 71.6673 283.537C72.7882 284.507 73.7869 286.409 73.7869 289.324C73.7869 293.506 73.7507 296.871 73.7507 297.9C73.7507 298.732 74.3132 299.706 75.8973 299.399C88.3072 295.263 97.25 283.553 97.25 269.75C97.25 252.491 83.2586 238.5 66.0003 238.5ZM46.4542 283.017C46.3854 283.172 46.1412 283.218 45.9186 283.112C45.692 283.01 45.5647 282.798 45.6382 282.643C45.7054 282.483 45.9502 282.438 46.1763 282.545C46.4035 282.647 46.5329 282.861 46.4542 283.017ZM47.9914 284.388C47.8424 284.526 47.551 284.462 47.3533 284.244C47.1489 284.026 47.1106 283.735 47.2617 283.594C47.4154 283.456 47.698 283.521 47.9029 283.739C48.1073 283.959 48.1472 284.249 47.9914 284.388ZM49.046 286.143C48.8545 286.276 48.5414 286.151 48.3479 285.874C48.1564 285.596 48.1564 285.262 48.352 285.129C48.5461 284.995 48.8545 285.115 49.0506 285.391C49.2416 285.674 49.2416 286.007 49.046 286.143ZM50.8294 288.176C50.6581 288.364 50.2933 288.314 50.0263 288.056C49.7531 287.804 49.677 287.446 49.8488 287.258C50.0221 287.068 50.389 287.121 50.6581 287.377C50.9293 287.629 51.0121 287.989 50.8294 288.176ZM53.1344 288.862C53.0588 289.106 52.7075 289.218 52.3535 289.114C52.0001 289.007 51.7687 288.72 51.8402 288.473C51.9136 288.226 52.2666 288.11 52.6231 288.222C52.9761 288.328 53.2079 288.613 53.1344 288.862ZM55.7576 289.153C55.7664 289.41 55.4662 289.624 55.0946 289.629C54.721 289.637 54.4188 289.429 54.4147 289.175C54.4147 288.915 54.7081 288.703 55.0817 288.697C55.4533 288.69 55.7576 288.897 55.7576 289.153ZM58.3345 289.054C58.379 289.305 58.1208 289.564 57.7518 289.633C57.3891 289.699 57.0532 289.544 57.0071 289.294C56.9621 289.036 57.225 288.778 57.5872 288.711C57.9567 288.647 58.2874 288.798 58.3345 289.054Z" fill="#7B4AE2" fill-opacity="0.5"/>
<path d="M491.904 37.0172C491.767 37.0297 491.329 37.0735 490.935 37.1048C481.844 37.9242 473.33 42.8283 467.937 50.3658C464.934 54.5568 463.013 59.3107 462.288 64.3461C462.031 66.1039 462 66.623 462 69.0063C462 71.3895 462.031 71.9087 462.288 73.6664C464.027 85.6826 472.579 95.7785 484.178 99.5191C486.255 100.188 488.445 100.645 490.935 100.92C491.904 101.027 496.096 101.027 497.065 100.92C501.363 100.445 505.004 99.3815 508.596 97.5487C509.146 97.2672 509.252 97.1922 509.177 97.1296C509.127 97.0921 506.781 93.9457 503.966 90.1426L498.848 83.2306L492.436 73.7414C488.908 68.5246 486.005 64.2586 485.98 64.2586C485.955 64.2523 485.93 68.4683 485.917 73.6163C485.898 82.6301 485.892 82.9929 485.779 83.2055C485.617 83.5121 485.492 83.6372 485.229 83.7748C485.029 83.8749 484.854 83.8936 483.909 83.8936H482.827L482.539 83.7122C482.351 83.5934 482.213 83.437 482.12 83.2556L481.988 82.9741L482.001 70.4324L482.02 57.8845L482.213 57.6406C482.314 57.5092 482.526 57.3403 482.676 57.259C482.933 57.1339 483.033 57.1214 484.115 57.1214C485.392 57.1214 485.604 57.1714 485.936 57.5342C486.03 57.6343 489.502 62.8637 493.656 69.1626C497.81 75.4616 503.491 84.0625 506.281 88.2848L511.348 95.9599L511.605 95.791C513.876 94.3148 516.278 92.213 518.18 90.0237C522.228 85.3761 524.836 79.7089 525.712 73.6664C525.969 71.9087 526 71.3895 526 69.0063C526 66.623 525.969 66.1039 525.712 64.3461C523.973 52.3299 515.421 42.2341 503.822 38.4934C501.776 37.8304 499.599 37.3738 497.159 37.0985C496.559 37.036 492.423 36.9672 491.904 37.0172ZM505.004 56.3708C505.305 56.5209 505.549 56.8086 505.636 57.1089C505.686 57.2715 505.699 60.7494 505.686 68.5872L505.668 79.834L503.684 76.794L501.695 73.754V65.5784C501.695 60.2928 501.72 57.3216 501.758 57.1777C501.858 56.8274 502.077 56.5522 502.377 56.3895C502.633 56.2582 502.727 56.2457 503.709 56.2457C504.635 56.2457 504.798 56.2582 505.004 56.3708Z" fill="#7B4AE2" fill-opacity="0.5"/>
<g clip-path="url(#clip0_2110_166)">
<path fill-rule="evenodd" clip-rule="evenodd" d="M478.75 400.75C478.75 396.332 482.332 392.75 486.75 392.75H533.25C537.668 392.75 541.25 396.332 541.25 400.75V447.25C541.25 451.668 537.668 455.25 533.25 455.25H486.75C482.332 455.25 478.75 451.668 478.75 447.25V400.75ZM495.184 444.979C495.184 444.98 495.184 444.98 495.184 444.98L495.184 444.979C496.568 447.916 499.295 450.349 503.994 450.349C509.196 450.349 512.762 447.58 512.762 441.497V424.38C512.762 422.758 511.447 421.444 509.825 421.444V421.444C508.203 421.444 506.889 422.758 506.889 424.38V441.414C506.889 444.35 505.672 445.105 503.742 445.105V445.105C500.935 445.105 497.98 443.287 495.579 444.741L495.184 444.979L495.184 444.979C495.184 444.979 495.184 444.979 495.184 444.979V444.979ZM522.506 443.744C521.318 442.731 519.657 442.205 518.306 442.988V442.988C516.985 443.752 516.462 445.452 517.471 446.597C519.441 448.83 522.482 450.35 526.65 450.35C532.23 450.35 536.384 447.455 536.384 442.169C536.384 437.26 533.573 435.079 528.58 432.939L527.112 432.31C524.595 431.219 523.504 430.505 523.504 428.743C523.504 427.317 524.595 426.226 526.315 426.226C527.031 426.226 527.641 426.356 528.182 426.646C529.557 427.38 531.198 428.032 532.51 427.19V427.19C533.718 426.414 534.148 424.785 533.165 423.738C531.406 421.866 529.166 421.108 526.315 421.108C521.07 421.108 517.714 424.464 517.714 428.869C517.714 433.652 520.525 435.918 524.763 437.721L526.231 438.351C528.916 439.525 530.51 440.239 530.51 442.252C530.51 443.931 528.958 445.147 526.525 445.147C524.801 445.147 523.523 444.612 522.506 443.744Z" fill="#7B4AE2" fill-opacity="0.5"/>
</g>
<path d="M526 199L514 209L526 219" stroke="#7B4AE2" stroke-linecap="round" stroke-linejoin="round"/>
<path d="M558 199L570 209L558 219" stroke="#7B4AE2" stroke-linecap="round" stroke-linejoin="round"/>
<path d="M550 187L534 231" stroke="#7B4AE2" stroke-linecap="round" stroke-linejoin="round"/>
<g filter="url(#filter0_d_2110_166)">
<circle cx="562" cy="211" r="20" fill="#7B4AE2" fill-opacity="0.2" shape-rendering="crispEdges"/>
</g>
<g filter="url(#filter1_d_2110_166)">
<circle cx="570.81" cy="316.81" r="35.8102" fill="#090E16"/>
</g>
<g clip-path="url(#clip1_2110_166)">
<path fill-rule="evenodd" clip-rule="evenodd" d="M585.918 298.905H555.703C554.158 298.905 552.905 300.158 552.905 301.703V331.918C552.905 333.463 554.158 334.715 555.703 334.715H585.918C587.463 334.715 588.715 333.463 588.715 331.918V301.703C588.715 300.158 587.463 298.905 585.918 298.905ZM573.96 330.812V326.948C574.661 327.536 575.422 327.977 576.244 328.27C577.066 328.564 577.895 328.711 578.733 328.711C579.225 328.711 579.654 328.667 580.02 328.578C580.387 328.49 580.693 328.367 580.938 328.21C581.184 328.053 581.367 327.868 581.488 327.655C581.609 327.441 581.669 327.21 581.669 326.96C581.669 326.622 581.573 326.32 581.379 326.055C581.186 325.789 580.922 325.544 580.588 325.318C580.254 325.093 579.857 324.876 579.398 324.667C578.939 324.457 578.443 324.244 577.911 324.027C576.558 323.463 575.549 322.775 574.885 321.962C574.22 321.149 573.888 320.167 573.888 319.016C573.888 318.114 574.069 317.34 574.431 316.692C574.794 316.044 575.287 315.511 575.912 315.092C576.536 314.673 577.259 314.366 578.081 314.169C578.902 313.971 579.772 313.873 580.691 313.873C581.593 313.873 582.392 313.927 583.089 314.036C583.786 314.144 584.428 314.311 585.017 314.537V318.147C584.727 317.946 584.41 317.768 584.068 317.616C583.726 317.462 583.373 317.336 583.011 317.235C582.648 317.134 582.288 317.06 581.929 317.012C581.571 316.964 581.23 316.939 580.908 316.939C580.465 316.939 580.062 316.982 579.7 317.066C579.337 317.151 579.031 317.269 578.782 317.422C578.532 317.575 578.338 317.758 578.201 317.972C578.064 318.185 577.996 318.424 577.996 318.69C577.996 318.98 578.073 319.239 578.226 319.469C578.379 319.698 578.596 319.915 578.878 320.121C579.16 320.326 579.502 320.527 579.905 320.724C580.308 320.922 580.763 321.125 581.271 321.334C581.963 321.624 582.586 321.932 583.138 322.258C583.689 322.584 584.163 322.952 584.557 323.363C584.952 323.773 585.254 324.242 585.464 324.769C585.673 325.296 585.778 325.91 585.778 326.61C585.778 327.576 585.595 328.387 585.228 329.043C584.861 329.699 584.364 330.23 583.736 330.637C583.107 331.043 582.376 331.335 581.543 331.512C580.709 331.689 579.829 331.778 578.902 331.778C577.952 331.778 577.048 331.697 576.19 331.536C575.332 331.375 574.589 331.134 573.96 330.812ZM572.489 317.334H567.52V331.498H563.585V317.334H558.64V314.152H572.489V317.334Z" fill="#7B4AE2" fill-opacity="0.5"/>
</g>
<g filter="url(#filter2_d_2110_166)">
<circle cx="104.81" cy="441.81" r="35.8102" fill="#090E16"/>
</g>
<g clip-path="url(#clip2_2110_166)">
<path fill-rule="evenodd" clip-rule="evenodd" d="M98.8885 423.905C95.594 423.905 92.9202 426.579 92.9202 429.873C92.9202 433.168 95.594 435.842 98.8885 435.842C95.594 435.842 92.9202 438.516 92.9202 441.81C92.9202 445.105 95.594 447.779 98.8885 447.779C95.594 447.779 92.9202 450.452 92.9202 453.747C92.9202 457.041 95.594 459.715 98.8885 459.715C102.183 459.715 104.857 457.041 104.857 453.747L104.857 441.81C104.857 445.105 107.531 447.779 110.825 447.779C114.12 447.779 116.794 445.105 116.794 441.81C116.794 438.516 114.12 435.842 110.825 435.842C114.12 435.842 116.794 433.168 116.794 429.873C116.794 426.579 114.12 423.905 110.825 423.905H98.8885ZM110.825 435.842H104.857L104.857 441.81C104.857 438.516 107.531 435.842 110.825 435.842Z" fill="#7B4AE2" fill-opacity="0.5"/>
</g>
<g filter="url(#filter3_d_2110_166)">
<path d="M121.62 146.81C121.62 166.588 105.588 182.62 85.8102 182.62C66.0328 182.62 50 166.588 50 146.81C50 127.033 66.0328 111 85.8102 111C105.588 111 121.62 127.033 121.62 146.81Z" fill="#090E16"/>
</g>
<path d="M99.2074 140.512C98.7899 140.368 98.3572 140.232 97.9118 140.104C97.985 139.805 98.0522 139.51 98.1119 139.22C99.0927 134.459 98.4514 130.624 96.2617 129.361C94.162 128.15 90.7281 129.412 87.26 132.431C86.9265 132.721 86.5921 133.028 86.2578 133.35C86.035 133.137 85.8127 132.931 85.5909 132.734C81.9562 129.507 78.313 128.147 76.1254 129.413C74.0277 130.628 73.4065 134.233 74.2893 138.745C74.3746 139.181 74.4743 139.626 74.587 140.079C74.0713 140.225 73.5736 140.381 73.0973 140.547C68.836 142.033 66.1146 144.361 66.1146 146.776C66.1146 149.271 69.0361 151.773 73.4745 153.29C73.8247 153.409 74.1882 153.523 74.5627 153.63C74.4412 154.119 74.3354 154.599 74.2467 155.067C73.4048 159.5 74.0622 163.021 76.1544 164.228C78.3153 165.474 81.942 164.193 85.4735 161.106C85.7526 160.862 86.0327 160.603 86.3134 160.332C86.6771 160.682 87.0403 161.014 87.4015 161.324C90.8221 164.268 94.2006 165.457 96.2908 164.247C98.4496 162.997 99.1512 159.215 98.2403 154.614C98.1707 154.262 98.0898 153.903 97.9989 153.538C98.2536 153.463 98.5036 153.385 98.7474 153.304C103.362 151.775 106.364 149.304 106.364 146.776C106.364 144.352 103.554 142.008 99.2074 140.512ZM98.2066 151.672C97.9866 151.745 97.7607 151.815 97.5306 151.884C97.0212 150.271 96.3338 148.556 95.4925 146.785C96.2953 145.055 96.9562 143.362 97.4513 141.76C97.863 141.879 98.2627 142.005 98.6477 142.138C102.372 143.42 104.644 145.316 104.644 146.776C104.644 148.332 102.191 150.352 98.2066 151.672ZM96.5536 154.948C96.9563 156.982 97.0139 158.822 96.7471 160.26C96.5073 161.552 96.0253 162.414 95.4292 162.759C94.1608 163.493 91.4482 162.538 88.5228 160.021C88.1875 159.732 87.8497 159.424 87.5108 159.098C88.6449 157.858 89.7784 156.416 90.8846 154.815C92.8304 154.642 94.6686 154.36 96.3357 153.974C96.4178 154.305 96.4907 154.63 96.5536 154.948ZM79.8364 162.632C78.5972 163.069 77.6101 163.082 77.0135 162.738C75.7439 162.006 75.2161 159.179 75.9361 155.387C76.0185 154.953 76.1167 154.507 76.2298 154.051C77.8786 154.416 79.7034 154.678 81.6538 154.836C82.7675 156.403 83.9337 157.844 85.1089 159.105C84.8521 159.353 84.5964 159.589 84.342 159.811C82.7804 161.176 81.2156 162.145 79.8364 162.632ZM74.0306 151.663C72.068 150.992 70.4472 150.12 69.3363 149.169C68.338 148.314 67.834 147.465 67.834 146.776C67.834 145.311 70.019 143.441 73.6633 142.171C74.1054 142.017 74.5683 141.871 75.0487 141.735C75.5523 143.373 76.213 145.086 77.0103 146.818C76.2027 148.576 75.5326 150.316 75.024 151.974C74.6816 151.875 74.3498 151.772 74.0306 151.663ZM75.9768 138.415C75.2203 134.549 75.7227 131.633 76.9868 130.902C78.3334 130.122 81.3109 131.234 84.4492 134.02C84.6498 134.198 84.8511 134.385 85.0531 134.577C83.8837 135.833 82.7282 137.263 81.6244 138.82C79.7314 138.996 77.9194 139.278 76.2534 139.655C76.1487 139.234 76.0559 138.82 75.9768 138.415ZM93.3384 142.702C92.9401 142.014 92.5312 141.343 92.1144 140.689C93.3986 140.852 94.629 141.067 95.7845 141.331C95.4376 142.443 95.0052 143.605 94.4963 144.797C94.1312 144.104 93.745 143.405 93.3384 142.702ZM86.2583 135.806C87.0514 136.665 87.8457 137.625 88.6269 138.666C87.8396 138.628 87.0427 138.609 86.2391 138.609C85.4432 138.609 84.6521 138.628 83.8698 138.665C84.6518 137.633 85.4529 136.675 86.2583 135.806ZM79.133 142.714C78.7351 143.404 78.3562 144.099 77.9968 144.795C77.4961 143.608 77.0677 142.44 76.7178 141.313C77.8662 141.056 79.0908 140.846 80.3668 140.686C79.9441 141.346 79.5319 142.022 79.133 142.714V142.714ZM80.4036 152.989C79.0852 152.842 77.8422 152.643 76.6941 152.393C77.0496 151.245 77.4874 150.052 77.9987 148.839C78.359 149.535 78.7395 150.231 79.1398 150.922H79.1399C79.5476 151.626 79.97 152.316 80.4036 152.989ZM86.3059 157.868C85.491 156.988 84.6781 156.016 83.8842 154.97C84.6549 155 85.4406 155.015 86.2391 155.015C87.0595 155.015 87.8705 154.997 88.6688 154.961C87.885 156.026 87.0936 157 86.3059 157.868ZM94.5127 148.778C95.0506 150.004 95.5041 151.19 95.8642 152.318C94.6972 152.584 93.4372 152.799 92.1097 152.958C92.5275 152.296 92.94 151.613 93.3452 150.91C93.7553 150.199 94.1446 149.487 94.5127 148.778ZM91.8559 150.051C91.2267 151.142 90.5808 152.183 89.925 153.166C88.7307 153.252 87.4968 153.296 86.2391 153.296C84.9866 153.296 83.7683 153.257 82.595 153.181C81.9129 152.185 81.2529 151.14 80.6277 150.061H80.6279C80.0044 148.984 79.4305 147.898 78.9105 146.818C79.4304 145.735 80.0027 144.648 80.6226 143.573L80.6225 143.573C81.2441 142.495 81.8982 141.456 82.5741 140.466C83.7711 140.376 84.9986 140.328 86.2391 140.328H86.2391C87.4852 140.328 88.7143 140.376 89.9109 140.467C90.5765 141.45 91.2262 142.486 91.8502 143.564C92.4813 144.654 93.061 145.734 93.5853 146.793C93.0626 147.871 92.4842 148.962 91.8559 150.051ZM95.4028 130.85C96.7506 131.628 97.2748 134.762 96.428 138.873C96.3739 139.135 96.3131 139.402 96.2471 139.673C94.5772 139.288 92.7639 139.001 90.8655 138.823C89.7595 137.248 88.6135 135.816 87.4631 134.577C87.7724 134.279 88.0812 133.995 88.3888 133.728C91.3602 131.142 94.1375 130.121 95.4028 130.85ZM86.2391 143.182C88.2241 143.182 89.8332 144.791 89.8332 146.776C89.8332 148.761 88.2241 150.37 86.2391 150.37C84.2542 150.37 82.645 148.761 82.645 146.776C82.645 144.791 84.2542 143.182 86.2391 143.182Z" fill="#7B4AE2" fill-opacity="0.5"/>
<g filter="url(#filter4_f_2110_166)">
<circle cx="320.148" cy="305.148" r="255.148" fill="#7B4AE2" fill-opacity="0.2"/>
</g>
<path fill-rule="evenodd" clip-rule="evenodd" d="M239.961 459.087C205.989 462.393 175.126 475.045 149.444 496.133C127.345 514.202 121.179 528.564 105 549.016C137.965 583.189 182.295 612.144 230.635 628.136C262.88 638.737 284.876 642.157 319.425 642.157C353.975 642.157 375.971 638.737 408.218 628.136C456.985 612.553 498.065 587.016 535.095 550.362C509.733 517.652 499.294 496.214 458.428 476.071C441.268 467.522 421.115 461.367 405.683 459.77L398.415 459.116L398.07 459.108L397.276 464.558C393.822 490.548 361.231 509.699 320.577 509.699C279.925 509.699 247.91 490.776 243.763 464.445C242.957 459.201 242.611 458.745 239.963 459.087H239.961V459.087Z" fill="#090E16"/>
<path fill-rule="evenodd" clip-rule="evenodd" d="M263.696 402.674C300.451 422.266 341.668 420.089 373.961 402.673V445.592L374.326 445.583V470.782H263.696V402.674Z" fill="#BB7D52"/>
<path fill-rule="evenodd" clip-rule="evenodd" d="M263.695 438.435C300.45 458.028 341.667 455.851 373.961 438.435V465.805L398.794 465.186L399.102 465.198C399.102 531.168 241.386 541.044 241.386 465.098L242.002 465.071L263.695 465.181V438.435V438.435Z" fill="#D08B5B"/>
<path fill-rule="evenodd" clip-rule="evenodd" d="M199.127 167.308C286.841 111.458 399.056 131.319 436.969 168.147C447.93 194.523 448.705 219.965 445.48 247.274C452.885 241.961 461.691 243.177 468.629 248.125C471.44 270.786 478.969 315.614 445.229 317.559C433.614 462.165 220.78 480.165 192.01 318.032C158.57 316.879 167.587 271.573 169.676 249.817C177.699 243.714 186.861 246.785 192.547 249.516L199.127 167.308V167.308Z" fill="#D08B5B"/>
<path fill-rule="evenodd" clip-rule="evenodd" d="M186.099 228.548C186.559 229.814 185.062 231.08 180.571 233.381C171.275 238.024 170.46 238.99 170.437 246.263V246.614C170.437 256.394 171.934 258.925 178.382 259.847C184.947 260.767 189.094 262.262 190.246 264.104C190.705 264.909 191.167 268.592 191.167 272.389C191.167 280.558 193.7 292.066 196.81 298.049C205.562 315.079 228.364 323.709 256.003 320.487C269.593 318.761 277.539 316.115 286.176 310.361C299.075 301.731 305.063 290.685 305.984 273.31C306.676 262.723 306.676 262.723 310.131 261.572C314.622 259.962 325.793 259.962 330.4 261.572C333.969 262.838 333.969 262.838 333.969 271.008C333.969 280.443 336.388 291.72 339.612 298.05C348.365 315.079 371.167 323.709 398.691 320.487C412.396 318.762 420.342 316.115 428.98 310.362C441.878 301.732 447.867 290.34 449.018 272.504C449.824 260.767 449.249 261.343 461.917 259.732C468.365 258.926 469.863 256.394 469.863 246.499C469.863 238.674 468.596 237.179 457.886 232.576L451.436 229.814L441.417 226.708L434.047 225.097C430.016 224.292 424.834 223.6 422.645 223.485C420.342 223.485 414.585 221.414 408.827 218.538C399.267 213.82 398.807 213.705 387.521 213.705C374.623 213.705 365.524 216.352 358.153 222.105C355.966 223.831 351.359 226.017 348.134 226.822C344.794 227.629 338.576 229.815 334.315 231.656C323.144 236.374 317.386 236.143 303.106 230.39C296.887 227.859 291.013 225.787 290.208 225.787C289.4 225.787 286.752 224.177 284.334 222.221C276.733 216.236 268.211 213.705 255.082 213.705C243.911 213.705 243.221 213.935 233.317 218.653C226.637 221.875 221.454 223.485 218.345 223.485C215.81 223.6 210.283 224.292 206.137 225.212L186.099 228.548V228.548ZM278.23 243.392C292.048 247.88 296.309 253.978 296.425 269.397C296.54 277.567 296.08 280.214 293.892 284.701C286.292 300.235 264.64 308.981 238.958 307.024C219.266 305.414 209.131 299.891 203.719 287.693C200.264 279.754 199.803 260.767 203.027 254.898C206.022 249.375 211.781 245.578 221.223 243.047C228.594 241.091 232.625 240.86 251.051 241.091C266.943 241.435 273.854 242.011 278.23 243.392V243.392ZM421.032 243.392C434.853 247.88 439.113 253.978 439.229 269.397C439.344 277.567 438.883 280.214 436.695 284.701C429.094 300.235 407.443 308.981 381.761 307.024C362.069 305.414 351.934 299.891 346.521 287.693C343.066 279.754 342.606 260.767 345.83 254.898C348.825 249.375 354.583 245.578 364.026 243.047C371.397 241.091 375.427 240.86 393.853 241.091C409.746 241.435 416.656 242.011 421.032 243.392V243.392Z" fill="#A66F49"/>
<path fill-rule="evenodd" clip-rule="evenodd" d="M289.285 54.832L282.03 59.5501L278.344 55.9827C272.586 50.3448 269.822 51.3804 265.446 60.7009C262.797 66.454 259.458 67.1449 253.7 63.3472C251.396 61.7365 248.517 60.3555 247.366 60.3555C244.832 60.3555 242.413 64.2676 241.377 69.4457C240.571 73.7033 237.807 77.6155 235.504 77.6155C234.698 77.6155 231.703 76.5799 228.825 75.314C224.448 73.3579 223.066 73.2427 220.648 74.2784C217.884 75.5442 217.653 76.2344 217.653 83.8292C217.653 89.3526 216.847 93.6102 215.35 96.8322C213.162 101.665 213.047 101.78 207.634 101.78C198.651 101.78 194.39 106.267 198.766 111.216C201.07 113.632 199.572 116.163 195.082 117.199C186.789 119.27 184.371 124.563 188.862 130.201C191.972 134.229 191.857 134.804 186.904 137.106C181.722 139.637 180.917 142.514 184.256 146.081C186.789 148.843 186.789 148.958 185.407 164.147C184.026 178.876 184.486 219.955 186.099 224.213C186.559 225.479 185.062 226.744 180.571 229.046C171.127 233.763 170.437 234.684 170.437 242.279C170.437 252.059 171.934 254.591 178.383 255.511C184.947 256.432 189.093 257.927 190.245 259.769C190.705 260.574 191.166 264.256 191.166 268.054C191.166 276.224 193.7 287.73 196.809 293.714C205.562 310.744 228.364 319.374 256.004 316.153C269.593 314.426 277.539 311.78 286.176 306.027C299.075 297.396 305.063 286.349 305.985 268.974C306.676 258.388 306.676 258.388 310.131 257.238C314.622 255.626 325.793 255.626 330.399 257.238C333.97 258.504 333.97 258.504 333.97 266.673C333.97 276.109 336.388 287.386 339.613 293.714C348.365 310.745 371.167 319.375 398.691 316.153C412.396 314.427 420.342 311.78 428.98 306.027C441.878 297.397 447.867 286.005 449.018 268.17C449.824 256.432 449.249 257.008 461.917 255.397C468.366 254.591 469.863 252.06 469.863 242.164C469.863 234.34 468.596 232.844 457.886 228.241L451.437 225.479V213.972C451.321 194.296 448.558 180.373 443.72 175.885C442.108 174.389 438.538 172.088 435.659 170.707C431.168 168.52 430.247 168.405 428.865 169.901C427.483 171.283 427.828 172.548 431.283 179.452C435.544 187.967 439.344 202.351 440.611 214.778L441.417 222.373L434.047 220.762C430.016 219.956 424.834 219.266 422.645 219.151C420.342 219.151 414.584 217.08 408.826 214.203C399.267 209.485 398.807 209.37 387.521 209.37C374.622 209.37 365.524 212.017 358.154 217.77C355.966 219.496 351.359 221.682 348.135 222.488C344.795 223.293 338.576 225.48 334.315 227.321C323.144 232.039 317.386 231.809 303.105 226.055C296.887 223.524 291.013 221.453 290.207 221.453C289.401 221.453 286.752 219.841 284.334 217.885C276.733 211.902 268.211 209.37 255.082 209.37C243.911 209.37 243.22 209.6 233.316 214.318C226.636 217.54 221.454 219.151 218.345 219.151C215.811 219.266 210.283 219.956 206.138 220.877C194.391 223.409 195.312 224.904 196.233 205.573C196.924 189.003 199.112 174.965 201.646 170.132C204.525 164.723 227.327 153.101 249.9 145.507C277.885 136.187 309.324 132.619 344.795 135.036C375.198 136.992 383.26 139.523 416.888 157.589C428.634 163.918 439.575 168.981 442.108 169.326C446.255 169.901 446.6 169.671 447.866 166.219C450.631 158.279 448.442 138.257 443.836 129.167C440.381 122.494 440.151 119.962 442.108 113.058C443.49 108.225 443.49 107.189 441.763 104.658C440.151 102.241 438.999 101.781 434.393 101.781C431.398 101.896 426.792 102.356 424.143 102.817C419.421 103.737 419.306 103.737 419.882 100.746C422.185 89.4691 419.421 86.9373 408.25 89.8139C404.68 90.7343 401.34 91.31 401.11 90.9646C400.765 90.6198 401.11 87.1676 401.916 83.3706C403.297 77.1569 403.183 76.1213 401.571 74.3948C399.843 72.7841 398.807 72.7841 392.127 74.05C381.417 76.2364 377.386 75.2008 373.47 69.2167C369.44 63.3485 365.754 61.2773 361.954 62.7728C359.881 63.5781 357.693 63.2333 353.547 61.3924C349.17 59.5515 346.637 59.0909 342.722 59.6659C338.691 60.3568 336.503 59.8962 332.702 57.9401C328.787 55.9841 326.599 55.6386 321.877 56.2137C316.81 56.7894 314.967 56.3288 309.094 53.4523C305.409 51.6113 301.033 50.1151 299.42 50C297.808 50 293.316 52.1864 289.286 54.8333L289.285 54.832V54.832ZM278.229 239.057C292.049 243.544 296.31 249.643 296.425 265.062C296.541 273.232 296.08 275.879 293.892 280.366C286.291 295.9 264.64 304.646 238.958 302.69C219.266 301.079 209.131 295.555 203.719 283.358C200.264 275.418 199.803 256.432 203.027 250.564C206.022 245.04 211.78 241.243 221.223 238.711C228.594 236.755 232.625 236.525 251.051 236.755C266.943 237.101 273.853 237.676 278.229 239.057V239.057ZM421.032 239.057C434.852 243.544 439.113 249.643 439.228 265.062C439.344 273.232 438.883 275.879 436.695 280.366C429.094 295.9 407.443 304.646 381.761 302.69C362.069 301.079 351.934 295.555 346.522 283.358C343.067 275.418 342.606 256.432 345.83 250.564C348.825 245.04 354.583 241.243 364.026 238.711C371.397 236.755 375.428 236.525 393.854 236.755C409.746 237.101 416.656 237.676 421.032 239.057V239.057Z" fill="#2C1B18"/>
<path fill-rule="evenodd" clip-rule="evenodd" d="M241.147 252.98C235.043 255.857 228.017 263.106 228.017 266.558C228.017 269.205 229.86 269.205 233.43 266.328C242.758 258.964 262.567 258.964 272.701 266.213C274.659 267.479 276.732 268.629 277.423 268.629C279.841 268.629 278.69 264.486 275.005 260.114C270.168 254.13 261.531 250.218 253.353 250.218C249.092 250.218 245.062 251.139 241.147 252.98V252.98V252.98Z" fill="#533824"/>
<path fill-rule="evenodd" clip-rule="evenodd" d="M374.736 252.98C368.633 255.857 361.608 263.106 361.608 266.558C361.608 269.205 363.451 269.205 367.021 266.328C376.349 258.964 396.157 258.964 406.292 266.213C408.249 267.479 410.322 268.629 411.014 268.629C413.432 268.629 412.28 264.486 408.595 260.114C403.758 254.13 395.121 250.218 386.944 250.218C382.683 250.218 378.652 251.139 374.737 252.98L374.736 252.98V252.98Z" fill="#533824"/>
<path fill-rule="evenodd" clip-rule="evenodd" d="M293.316 307.983C294.583 312.93 298.268 316.843 304.717 319.95C309.9 322.481 312.548 323.057 320.149 323.057C327.75 323.057 330.399 322.481 335.581 319.95C342.03 316.843 345.715 312.931 346.982 307.983L347.558 305.452H320.149H292.74L293.316 307.983V307.983Z" fill="#AF754C"/>
<path fill-rule="evenodd" clip-rule="evenodd" d="M186.099 224.213C186.559 225.478 185.062 226.744 180.571 229.046C171.275 233.689 170.46 234.655 170.437 241.927V242.279C170.437 252.06 171.934 254.59 178.382 255.512C184.947 256.432 189.094 257.927 190.246 259.769C190.705 260.574 191.167 264.257 191.167 268.053C191.167 276.223 193.7 287.731 196.81 293.714C205.562 310.744 228.364 319.374 256.003 316.152C269.593 314.425 277.539 311.78 286.176 306.026C299.075 297.396 305.063 286.35 305.984 268.975C306.676 258.388 306.676 258.388 310.131 257.237C314.622 255.627 325.793 255.627 330.4 257.237C333.969 258.503 333.969 258.503 333.969 266.673C333.969 276.108 336.388 287.386 339.612 293.715C348.365 310.744 371.167 319.374 398.691 316.152C412.396 314.427 420.342 311.78 428.98 306.027C441.878 297.398 447.867 286.005 449.018 268.17C449.824 256.432 449.249 257.008 461.917 255.397C468.365 254.591 469.863 252.06 469.863 242.163C469.863 234.339 468.596 232.844 457.886 228.241L451.436 225.478L441.417 222.374L434.047 220.762C430.016 219.957 424.834 219.265 422.645 219.15C420.342 219.15 414.585 217.079 408.827 214.203C399.267 209.485 398.807 209.37 387.521 209.37C374.623 209.37 365.524 212.017 358.153 217.771C355.966 219.496 351.359 221.682 348.134 222.487C344.794 223.293 338.576 225.48 334.315 227.321C323.144 232.039 317.386 231.809 303.106 226.055C296.887 223.524 291.013 221.452 290.208 221.452C289.4 221.452 286.752 219.842 284.334 217.886C276.733 211.902 268.211 209.37 255.082 209.37C243.911 209.37 243.221 209.6 233.317 214.318C226.637 217.54 221.454 219.15 218.345 219.15C215.81 219.265 210.283 219.957 206.137 220.877L186.099 224.213V224.213ZM278.23 239.057C292.048 243.545 296.309 249.643 296.425 265.062C296.54 273.232 296.08 275.879 293.892 280.366C286.292 295.9 264.64 304.646 238.958 302.689C219.266 301.079 209.131 295.555 203.719 283.358C200.264 275.418 199.803 256.432 203.027 250.563C206.022 245.04 211.781 241.244 221.223 238.712C228.594 236.756 232.625 236.525 251.051 236.756C266.943 237.1 273.854 237.676 278.23 239.057V239.057ZM421.032 239.057C434.853 243.545 439.113 249.643 439.229 265.062C439.344 273.232 438.883 275.879 436.695 280.366C429.094 295.9 407.443 304.646 381.761 302.689C362.069 301.079 351.934 295.555 346.521 283.358C343.066 275.418 342.606 256.432 345.83 250.563C348.825 245.04 354.583 241.244 364.026 238.712C371.397 236.756 375.427 236.525 393.853 236.756C409.746 237.1 416.656 237.676 421.032 239.057V239.057Z" fill="#090E16"/>
<path fill-rule="evenodd" clip-rule="evenodd" d="M288.018 354.24C289.515 363.791 296.771 373.572 305.754 378.174C312.318 381.626 324.41 382.317 331.32 379.67C341.685 375.643 350.668 364.826 352.28 354.24H288.018V354.24Z" fill="#3E291B"/>
<path fill-rule="evenodd" clip-rule="evenodd" d="M287.034 330.254C285.28 330.891 280.975 332.962 277.467 334.954C273.959 336.865 269.973 338.937 268.618 339.494C265.828 340.609 257.617 340.927 254.986 340.051C253.471 339.573 253.152 339.732 253.152 341.245C253.152 343.715 258.335 348.335 263.995 351.044C271.329 354.549 280.895 353.832 292.854 348.814C297.47 347.454 304.147 343.812 309.515 341.963C321.343 337.785 327.385 340.183 338.056 344.751L347.383 348.814C359.342 353.832 368.908 354.549 376.243 351.044C381.982 348.335 387.324 343.477 386.926 341.405C386.766 340.609 386.048 340.131 385.411 340.29C384.773 340.45 381.823 340.529 378.794 340.529C374.01 340.449 372.575 340.051 366.836 337.104C351.29 328.98 353.522 329.617 342.042 329.617C332.874 329.617 331.04 329.935 325.939 331.767L320.118 333.838L314.378 331.767C307.363 329.298 292.455 328.501 287.034 330.254V330.254Z" fill="#2C1B18" fill-opacity="0.301961"/>
<path d="M360.781 576.211L368.176 570.203C369.89 568.811 372.409 569.07 373.802 570.783C375.196 572.495 374.936 575.012 373.222 576.404L369.643 579.311L395.628 601.187C397.341 602.58 397.601 605.096 396.208 606.808C395.417 607.78 394.265 608.284 393.103 608.284C392.216 608.284 391.323 607.991 390.582 607.388L360.781 582.412C359.847 581.653 359.305 580.514 359.305 579.311C359.305 578.109 359.847 576.97 360.781 576.211V576.211Z" fill="#7B4AE2"/>
<path d="M393.62 539.502C395.743 539.519 397.451 541.253 397.434 543.374L397.104 604.472C397.087 606.594 395.351 608.3 393.228 608.283C392.69 608.279 392.18 608.165 391.716 607.962C390.351 607.364 389.401 605.995 389.414 604.411L389.745 543.314C389.762 541.191 391.497 539.485 393.62 539.502V539.502Z" fill="#7B4AE2"/>
<path d="M410.498 581.53L413.229 579.311L403.501 571.408C401.787 570.016 401.528 567.5 402.921 565.787C404.314 564.075 406.833 563.815 408.547 565.207L422.09 576.211C423.025 576.97 423.567 578.109 423.567 579.311C423.567 580.514 423.025 581.653 422.09 582.412L415.543 587.731C414.802 588.333 413.909 588.627 413.023 588.627C411.86 588.627 410.708 588.122 409.918 587.151C408.524 585.439 408.784 582.923 410.498 581.53V581.53Z" fill="#C83267"/>
<defs>
<filter id="filter0_d_2110_166" x="538" y="191" width="48" height="48" filterUnits="userSpaceOnUse" color-interpolation-filters="sRGB">
<feFlood flood-opacity="0" result="BackgroundImageFix"/>
<feColorMatrix in="SourceAlpha" type="matrix" values="0 0 0 0 0 0 0 0 0 0 0 0 0 0 0 0 0 0 127 0" result="hardAlpha"/>
<feOffset dy="4"/>
<feGaussianBlur stdDeviation="2"/>
<feComposite in2="hardAlpha" operator="out"/>
<feColorMatrix type="matrix" values="0 0 0 0 0 0 0 0 0 0 0 0 0 0 0 0 0 0 0.25 0"/>
<feBlend mode="normal" in2="BackgroundImageFix" result="effect1_dropShadow_2110_166"/>
<feBlend mode="normal" in="SourceGraphic" in2="effect1_dropShadow_2110_166" result="shape"/>
</filter>
<filter id="filter1_d_2110_166" x="485" y="235" width="171.62" height="171.62" filterUnits="userSpaceOnUse" color-interpolation-filters="sRGB">
<feFlood flood-opacity="0" result="BackgroundImageFix"/>
<feColorMatrix in="SourceAlpha" type="matrix" values="0 0 0 0 0 0 0 0 0 0 0 0 0 0 0 0 0 0 127 0" result="hardAlpha"/>
<feOffset dy="4"/>
<feGaussianBlur stdDeviation="25"/>
<feComposite in2="hardAlpha" operator="out"/>
<feColorMatrix type="matrix" values="0 0 0 0 0 0 0 0 0 0 0 0 0 0 0 0 0 0 0.5 0"/>
<feBlend mode="normal" in2="BackgroundImageFix" result="effect1_dropShadow_2110_166"/>
<feBlend mode="normal" in="SourceGraphic" in2="effect1_dropShadow_2110_166" result="shape"/>
</filter>
<filter id="filter2_d_2110_166" x="19" y="360" width="171.62" height="171.62" filterUnits="userSpaceOnUse" color-interpolation-filters="sRGB">
<feFlood flood-opacity="0" result="BackgroundImageFix"/>
<feColorMatrix in="SourceAlpha" type="matrix" values="0 0 0 0 0 0 0 0 0 0 0 0 0 0 0 0 0 0 127 0" result="hardAlpha"/>
<feOffset dy="4"/>
<feGaussianBlur stdDeviation="25"/>
<feComposite in2="hardAlpha" operator="out"/>
<feColorMatrix type="matrix" values="0 0 0 0 0 0 0 0 0 0 0 0 0 0 0 0 0 0 0.5 0"/>
<feBlend mode="normal" in2="BackgroundImageFix" result="effect1_dropShadow_2110_166"/>
<feBlend mode="normal" in="SourceGraphic" in2="effect1_dropShadow_2110_166" result="shape"/>
</filter>
<filter id="filter3_d_2110_166" x="0" y="65" width="171.62" height="171.62" filterUnits="userSpaceOnUse" color-interpolation-filters="sRGB">
<feFlood flood-opacity="0" result="BackgroundImageFix"/>
<feColorMatrix in="SourceAlpha" type="matrix" values="0 0 0 0 0 0 0 0 0 0 0 0 0 0 0 0 0 0 127 0" result="hardAlpha"/>
<feOffset dy="4"/>
<feGaussianBlur stdDeviation="25"/>
<feComposite in2="hardAlpha" operator="out"/>
<feColorMatrix type="matrix" values="0 0 0 0 0 0 0 0 0 0 0 0 0 0 0 0 0 0 0.5 0"/>
<feBlend mode="normal" in2="BackgroundImageFix" result="effect1_dropShadow_2110_166"/>
<feBlend mode="normal" in="SourceGraphic" in2="effect1_dropShadow_2110_166" result="shape"/>
</filter>
<filter id="filter4_f_2110_166" x="15" y="0" width="610.296" height="610.296" filterUnits="userSpaceOnUse" color-interpolation-filters="sRGB">
<feFlood flood-opacity="0" result="BackgroundImageFix"/>
<feBlend mode="normal" in="SourceGraphic" in2="BackgroundImageFix" result="shape"/>
<feGaussianBlur stdDeviation="25" result="effect1_foregroundBlur_2110_166"/>
</filter>
<clipPath id="clip0_2110_166">
<rect x="478" y="392" width="64" height="64" rx="8" fill="white"/>
</clipPath>
<clipPath id="clip1_2110_166">
<rect width="35.8102" height="35.8102" fill="white" transform="translate(552.905 298.905)"/>
</clipPath>
<clipPath id="clip2_2110_166">
<rect width="35.8102" height="35.8102" fill="white" transform="translate(86.9052 423.905)"/>
</clipPath>
</defs>
</svg>
