<svg width="431" height="593" viewBox="0 0 431 593" fill="none" xmlns="http://www.w3.org/2000/svg">
<path fill-rule="evenodd" clip-rule="evenodd" d="M134.961 409.087C100.989 412.393 70.1256 425.045 44.4437 446.133C22.3446 464.202 16.1793 478.564 0 499.016C32.9654 533.189 77.2945 562.144 125.635 578.136C157.88 588.737 179.876 592.157 214.425 592.157C248.975 592.157 270.971 588.737 303.218 578.136C351.985 562.553 393.065 537.016 430.095 500.362C404.733 467.652 394.294 446.214 353.428 426.071C336.268 417.522 316.115 411.367 300.683 409.77L293.415 409.116L293.07 409.108L292.276 414.558C288.822 440.548 256.231 459.699 215.577 459.699C174.925 459.699 142.91 440.776 138.763 414.445C137.957 409.201 137.611 408.745 134.963 409.087H134.961V409.087Z" fill="#090E16"/>
<path fill-rule="evenodd" clip-rule="evenodd" d="M158.696 352.674C195.451 372.266 236.668 370.089 268.961 352.673V395.592L269.326 395.583V420.782H158.696V352.674Z" fill="#BB7D52"/>
<path fill-rule="evenodd" clip-rule="evenodd" d="M158.695 388.435C195.45 408.028 236.667 405.851 268.961 388.435V415.805L293.794 415.186L294.102 415.198C294.102 481.168 136.386 491.044 136.386 415.098L137.002 415.071L158.695 415.181V388.435V388.435Z" fill="#D08B5B"/>
<path fill-rule="evenodd" clip-rule="evenodd" d="M94.1271 117.308C181.841 61.4584 294.056 81.3189 331.969 118.147C342.93 144.523 343.705 169.965 340.48 197.274C347.885 191.961 356.691 193.177 363.629 198.125C366.44 220.786 373.969 265.614 340.229 267.559C328.614 412.165 115.78 430.165 87.0099 268.032C53.5699 266.879 62.5868 221.573 64.6764 199.817C72.699 193.714 81.8605 196.785 87.5473 199.516L94.1271 117.308V117.308Z" fill="#D08B5B"/>
<path fill-rule="evenodd" clip-rule="evenodd" d="M81.0986 178.548C81.5595 179.814 80.0623 181.08 75.5709 183.381C66.2751 188.024 65.4601 188.99 65.4365 196.263V196.614C65.4365 206.394 66.9337 208.925 73.3825 209.847C79.9471 210.767 84.0936 212.262 85.2457 214.104C85.7053 214.909 86.1668 218.592 86.1668 222.389C86.1668 230.558 88.6996 242.066 91.8097 248.049C100.562 265.079 123.364 273.709 151.003 270.487C164.593 268.761 172.539 266.115 181.176 260.361C194.075 251.731 200.063 240.685 200.984 223.31C201.676 212.723 201.676 212.723 205.131 211.572C209.622 209.962 220.793 209.962 225.4 211.572C228.969 212.838 228.969 212.838 228.969 221.008C228.969 230.443 231.388 241.72 234.612 248.05C243.365 265.079 266.167 273.709 293.691 270.487C307.396 268.762 315.342 266.115 323.98 260.362C336.878 251.732 342.867 240.34 344.018 222.504C344.824 210.767 344.249 211.343 356.917 209.732C363.365 208.926 364.863 206.394 364.863 196.499C364.863 188.674 363.596 187.179 352.886 182.576L346.436 179.814L336.417 176.708L329.047 175.097C325.016 174.292 319.834 173.6 317.645 173.485C315.342 173.485 309.585 171.414 303.827 168.538C294.267 163.82 293.807 163.705 282.521 163.705C269.623 163.705 260.524 166.352 253.153 172.105C250.966 173.831 246.359 176.017 243.134 176.822C239.794 177.629 233.576 179.815 229.315 181.656C218.144 186.374 212.386 186.143 198.106 180.39C191.887 177.859 186.013 175.787 185.208 175.787C184.4 175.787 181.752 174.177 179.334 172.221C171.733 166.236 163.211 163.705 150.082 163.705C138.911 163.705 138.221 163.935 128.317 168.653C121.637 171.875 116.454 173.485 113.345 173.485C110.81 173.6 105.283 174.292 101.137 175.212L81.0986 178.548V178.548ZM173.23 193.392C187.048 197.88 191.309 203.978 191.425 219.397C191.54 227.567 191.08 230.214 188.892 234.701C181.292 250.235 159.64 258.981 133.958 257.024C114.266 255.414 104.131 249.891 98.7187 237.693C95.2636 229.754 94.8034 210.767 98.0268 204.898C101.022 199.375 106.781 195.578 116.223 193.047C123.594 191.091 127.625 190.86 146.051 191.091C161.943 191.435 168.854 192.011 173.23 193.392V193.392ZM316.032 193.392C329.853 197.88 334.113 203.978 334.229 219.397C334.344 227.567 333.883 230.214 331.695 234.701C324.094 250.235 302.443 258.981 276.761 257.024C257.069 255.414 246.934 249.891 241.521 237.693C238.066 229.754 237.606 210.767 240.83 204.898C243.825 199.375 249.583 195.578 259.026 193.047C266.397 191.091 270.427 190.86 288.853 191.091C304.746 191.435 311.656 192.011 316.032 193.392V193.392Z" fill="#A66F49"/>
<path fill-rule="evenodd" clip-rule="evenodd" d="M184.285 4.83199L177.03 9.55014L173.344 5.98274C167.586 0.344768 164.822 1.38038 160.446 10.7009C157.797 16.454 154.458 17.1449 148.7 13.3472C146.396 11.7365 143.517 10.3555 142.366 10.3555C139.832 10.3555 137.413 14.2676 136.377 19.4457C135.571 23.7033 132.807 27.6155 130.504 27.6155C129.698 27.6155 126.703 26.5799 123.825 25.314C119.448 23.3579 118.066 23.2427 115.648 24.2784C112.884 25.5442 112.653 26.2344 112.653 33.8292C112.653 39.3526 111.847 43.6102 110.35 46.8322C108.162 51.6649 108.047 51.78 102.634 51.78C93.6512 51.78 89.3902 56.2672 93.7664 61.2157C96.0701 63.6317 94.5723 66.1634 90.0815 67.1991C81.7893 69.2703 79.371 74.5635 83.8625 80.2015C86.972 84.2288 86.8568 84.8045 81.9045 87.106C76.7224 89.6371 75.9165 92.5143 79.2558 96.0811C81.7893 98.8431 81.7893 98.9576 80.4073 114.147C79.0261 128.876 79.4863 169.955 81.0986 174.213C81.5595 175.479 80.0623 176.744 75.5709 179.046C66.1272 183.763 65.4365 184.684 65.4365 192.279C65.4365 202.059 66.9337 204.591 73.3831 205.511C79.9471 206.432 84.0929 207.927 85.2451 209.769C85.7053 210.574 86.1661 214.256 86.1661 218.054C86.1661 226.224 88.6996 237.73 91.8091 243.714C100.562 260.744 123.364 269.374 151.004 266.153C164.593 264.426 172.539 261.78 181.176 256.027C194.075 247.396 200.063 236.349 200.985 218.974C201.676 208.388 201.676 208.388 205.131 207.238C209.622 205.626 220.793 205.626 225.399 207.238C228.97 208.504 228.97 208.504 228.97 216.673C228.97 226.109 231.388 237.386 234.613 243.714C243.365 260.745 266.167 269.375 293.691 266.153C307.396 264.427 315.342 261.78 323.98 256.027C336.878 247.397 342.867 236.005 344.018 218.17C344.824 206.432 344.249 207.008 356.917 205.397C363.366 204.591 364.863 202.06 364.863 192.164C364.863 184.34 363.596 182.844 352.886 178.241L346.437 175.479V163.972C346.321 144.296 343.558 130.373 338.72 125.885C337.108 124.389 333.538 122.088 330.659 120.707C326.168 118.52 325.247 118.405 323.865 119.901C322.483 121.283 322.828 122.548 326.283 129.452C330.544 137.967 334.344 152.351 335.611 164.778L336.417 172.373L329.047 170.762C325.016 169.956 319.834 169.266 317.645 169.151C315.342 169.151 309.584 167.08 303.826 164.203C294.267 159.485 293.807 159.37 282.521 159.37C269.622 159.37 260.524 162.017 253.154 167.77C250.966 169.496 246.359 171.682 243.135 172.488C239.795 173.293 233.576 175.48 229.315 177.321C218.144 182.039 212.386 181.809 198.105 176.055C191.887 173.524 186.013 171.453 185.207 171.453C184.401 171.453 181.752 169.841 179.334 167.885C171.733 161.902 163.211 159.37 150.082 159.37C138.911 159.37 138.22 159.6 128.316 164.318C121.636 167.54 116.454 169.151 113.345 169.151C110.811 169.266 105.283 169.956 101.138 170.877C89.3909 173.409 90.3119 174.904 91.233 155.573C91.9243 139.003 94.1121 124.965 96.6462 120.132C99.5253 114.723 122.327 103.101 144.9 95.5073C172.885 86.1868 204.324 82.6194 239.795 85.0361C270.198 86.9921 278.26 89.5233 311.888 107.589C323.634 113.918 334.575 118.981 337.108 119.326C341.255 119.901 341.6 119.671 342.866 116.219C345.631 108.279 343.442 88.2574 338.836 79.1672C335.381 72.4936 335.151 69.9618 337.108 63.0579C338.49 58.2246 338.49 57.189 336.763 54.6579C335.151 52.2412 333.999 51.7813 329.393 51.7813C326.398 51.8964 321.792 52.3564 319.143 52.8169C314.421 53.7374 314.306 53.7374 314.882 50.7457C317.185 39.4691 314.421 36.9373 303.25 39.8139C299.68 40.7343 296.34 41.31 296.11 40.9646C295.765 40.6198 296.11 37.1676 296.916 33.3706C298.297 27.1569 298.183 26.1213 296.571 24.3948C294.843 22.7841 293.807 22.7841 287.127 24.05C276.417 26.2364 272.386 25.2008 268.47 19.2167C264.44 13.3485 260.754 11.2773 256.954 12.7728C254.881 13.5781 252.693 13.2333 248.547 11.3924C244.17 9.55145 241.637 9.09089 237.722 9.66594C233.691 10.3568 231.503 9.89622 227.702 7.94014C223.787 5.98405 221.599 5.63863 216.877 6.21368C211.81 6.78938 209.967 6.32882 204.094 3.45226C200.409 1.61132 196.033 0.115141 194.42 0C192.808 0 188.316 2.18637 184.286 4.8333L184.285 4.83199V4.83199ZM173.229 189.057C187.049 193.544 191.31 199.643 191.425 215.062C191.541 223.232 191.08 225.879 188.892 230.366C181.291 245.9 159.64 254.646 133.958 252.69C114.266 251.079 104.131 245.555 98.7187 233.358C95.2636 225.418 94.8027 206.432 98.0274 200.564C101.022 195.04 106.78 191.243 116.223 188.711C123.594 186.755 127.625 186.525 146.051 186.755C161.943 187.101 168.853 187.676 173.229 189.057V189.057ZM316.032 189.057C329.852 193.544 334.113 199.643 334.228 215.062C334.344 223.232 333.883 225.879 331.695 230.366C324.094 245.9 302.443 254.646 276.761 252.69C257.069 251.079 246.934 245.555 241.522 233.358C238.067 225.418 237.606 206.432 240.83 200.564C243.825 195.04 249.583 191.243 259.026 188.711C266.397 186.755 270.428 186.525 288.854 186.755C304.746 187.101 311.656 187.676 316.032 189.057V189.057Z" fill="#2C1B18"/>
<path fill-rule="evenodd" clip-rule="evenodd" d="M136.147 202.98C130.043 205.857 123.017 213.106 123.017 216.558C123.017 219.205 124.86 219.205 128.43 216.328C137.758 208.964 157.567 208.964 167.701 216.213C169.659 217.479 171.732 218.629 172.423 218.629C174.841 218.629 173.69 214.486 170.005 210.114C165.168 204.13 156.531 200.218 148.353 200.218C144.092 200.218 140.062 201.139 136.147 202.98V202.98V202.98Z" fill="#533824"/>
<path fill-rule="evenodd" clip-rule="evenodd" d="M269.736 202.98C263.633 205.857 256.608 213.106 256.608 216.558C256.608 219.205 258.451 219.205 262.021 216.328C271.349 208.964 291.157 208.964 301.292 216.213C303.249 217.479 305.322 218.629 306.014 218.629C308.432 218.629 307.28 214.486 303.595 210.114C298.758 204.13 290.121 200.218 281.944 200.218C277.683 200.218 273.652 201.139 269.737 202.98L269.736 202.98V202.98Z" fill="#533824"/>
<path fill-rule="evenodd" clip-rule="evenodd" d="M188.316 257.983C189.583 262.93 193.268 266.843 199.717 269.95C204.9 272.481 207.548 273.057 215.149 273.057C222.75 273.057 225.399 272.481 230.581 269.95C237.03 266.843 240.715 262.931 241.982 257.983L242.558 255.452H215.149H187.74L188.316 257.983V257.983Z" fill="#AF754C"/>
<path fill-rule="evenodd" clip-rule="evenodd" d="M81.0986 174.213C81.5595 175.478 80.0623 176.744 75.5709 179.046C66.2751 183.689 65.4601 184.655 65.4365 191.927V192.279C65.4365 202.06 66.9337 204.59 73.3825 205.512C79.9471 206.432 84.0936 207.927 85.2457 209.769C85.7053 210.574 86.1668 214.257 86.1668 218.053C86.1668 226.223 88.6996 237.731 91.8097 243.714C100.562 260.744 123.364 269.374 151.003 266.152C164.593 264.425 172.539 261.78 181.176 256.026C194.075 247.396 200.063 236.35 200.984 218.975C201.676 208.388 201.676 208.388 205.131 207.237C209.622 205.627 220.793 205.627 225.4 207.237C228.969 208.503 228.969 208.503 228.969 216.673C228.969 226.108 231.388 237.386 234.612 243.715C243.365 260.744 266.167 269.374 293.691 266.152C307.396 264.427 315.342 261.78 323.98 256.027C336.878 247.398 342.867 236.005 344.018 218.17C344.824 206.432 344.249 207.008 356.917 205.397C363.365 204.591 364.863 202.06 364.863 192.163C364.863 184.339 363.596 182.844 352.886 178.241L346.436 175.478L336.417 172.374L329.047 170.762C325.016 169.957 319.834 169.265 317.645 169.15C315.342 169.15 309.585 167.079 303.827 164.203C294.267 159.485 293.807 159.37 282.521 159.37C269.623 159.37 260.524 162.017 253.153 167.771C250.966 169.496 246.359 171.682 243.134 172.487C239.794 173.293 233.576 175.48 229.315 177.321C218.144 182.039 212.386 181.809 198.106 176.055C191.887 173.524 186.013 171.452 185.208 171.452C184.4 171.452 181.752 169.842 179.334 167.886C171.733 161.902 163.211 159.37 150.082 159.37C138.911 159.37 138.221 159.6 128.317 164.318C121.637 167.54 116.454 169.15 113.345 169.15C110.81 169.265 105.283 169.957 101.137 170.877L81.0986 174.213V174.213ZM173.23 189.057C187.048 193.545 191.309 199.643 191.425 215.062C191.54 223.232 191.08 225.879 188.892 230.366C181.292 245.9 159.64 254.646 133.958 252.689C114.266 251.079 104.131 245.555 98.7187 233.358C95.2636 225.418 94.8034 206.432 98.0268 200.563C101.022 195.04 106.781 191.244 116.223 188.712C123.594 186.756 127.625 186.525 146.051 186.756C161.943 187.1 168.854 187.676 173.23 189.057V189.057ZM316.032 189.057C329.853 193.545 334.113 199.643 334.229 215.062C334.344 223.232 333.883 225.879 331.695 230.366C324.094 245.9 302.443 254.646 276.761 252.689C257.069 251.079 246.934 245.555 241.521 233.358C238.066 225.418 237.606 206.432 240.83 200.563C243.825 195.04 249.583 191.244 259.026 188.712C266.397 186.756 270.427 186.525 288.853 186.756C304.746 187.1 311.656 187.676 316.032 189.057V189.057Z" fill="#090E16"/>
<path fill-rule="evenodd" clip-rule="evenodd" d="M183.018 304.24C184.515 313.791 191.771 323.572 200.754 328.174C207.318 331.626 219.41 332.317 226.32 329.67C236.685 325.643 245.668 314.826 247.28 304.24H183.018V304.24Z" fill="#3E291B"/>
<path fill-rule="evenodd" clip-rule="evenodd" d="M182.034 280.254C180.28 280.891 175.975 282.962 172.467 284.954C168.959 286.865 164.973 288.937 163.618 289.494C160.828 290.609 152.617 290.927 149.986 290.051C148.471 289.573 148.152 289.732 148.152 291.245C148.152 293.715 153.335 298.335 158.995 301.044C166.329 304.549 175.895 303.832 187.854 298.814C192.47 297.454 199.147 293.812 204.515 291.963C216.343 287.785 222.385 290.183 233.056 294.751L242.383 298.814C254.342 303.832 263.908 304.549 271.243 301.044C276.982 298.335 282.324 293.477 281.926 291.405C281.766 290.609 281.048 290.131 280.411 290.29C279.773 290.45 276.823 290.529 273.794 290.529C269.01 290.449 267.575 290.051 261.836 287.104C246.29 278.98 248.522 279.617 237.042 279.617C227.874 279.617 226.04 279.935 220.939 281.767L215.118 283.838L209.378 281.767C202.363 279.298 187.455 278.501 182.034 280.254V280.254Z" fill="#2C1B18" fill-opacity="0.301961"/>
<path d="M255.781 526.211L263.176 520.203C264.89 518.811 267.409 519.07 268.802 520.783C270.196 522.495 269.936 525.012 268.222 526.404L264.643 529.311L290.628 551.187C292.341 552.58 292.601 555.096 291.208 556.808C290.417 557.78 289.265 558.284 288.103 558.284C287.216 558.284 286.323 557.991 285.582 557.388L255.781 532.412C254.847 531.653 254.305 530.514 254.305 529.311C254.305 528.109 254.847 526.97 255.781 526.211V526.211Z" fill="#7B4AE2"/>
<path d="M288.62 489.502C290.743 489.519 292.451 491.253 292.434 493.374L292.104 554.472C292.087 556.594 290.351 558.3 288.228 558.283C287.69 558.279 287.18 558.165 286.716 557.962C285.351 557.364 284.401 555.995 284.414 554.411L284.745 493.314C284.762 491.191 286.497 489.485 288.62 489.502V489.502Z" fill="#7B4AE2"/>
<path d="M305.498 531.53L308.229 529.311L298.501 521.408C296.787 520.016 296.528 517.5 297.921 515.787C299.314 514.075 301.833 513.815 303.547 515.207L317.09 526.211C318.025 526.97 318.567 528.109 318.567 529.311C318.567 530.514 318.025 531.653 317.09 532.412L310.543 537.731C309.802 538.333 308.909 538.627 308.023 538.627C306.86 538.627 305.708 538.122 304.918 537.151C303.524 535.439 303.784 532.923 305.498 531.53V531.53Z" fill="#C83267"/>
</svg>
