<svg width="136" height="24" viewBox="0 0 136 24" fill="none" xmlns="http://www.w3.org/2000/svg">
<path d="M0.729416 20.4H20.7294V0.4H0.729416V20.4ZM35.4741 8.52C35.3808 8.42667 35.2074 8.3 34.9541 8.14C34.7141 7.98 34.4141 7.82667 34.0541 7.68C33.7074 7.53333 33.3274 7.40667 32.9141 7.3C32.5008 7.18 32.0808 7.12 31.6541 7.12C30.9074 7.12 30.3408 7.26 29.9541 7.54C29.5808 7.82 29.3941 8.21333 29.3941 8.72C29.3941 9.10667 29.5141 9.41333 29.7541 9.64C29.9941 9.86667 30.3541 10.06 30.8341 10.22C31.3141 10.38 31.9141 10.5533 32.6341 10.74C33.5674 10.9667 34.3741 11.2467 35.0541 11.58C35.7474 11.9 36.2741 12.3267 36.6341 12.86C37.0074 13.38 37.1941 14.0733 37.1941 14.94C37.1941 15.7 37.0541 16.3533 36.7741 16.9C36.4941 17.4333 36.1074 17.8667 35.6141 18.2C35.1208 18.5333 34.5608 18.78 33.9341 18.94C33.3074 19.0867 32.6408 19.16 31.9341 19.16C31.2274 19.16 30.5208 19.0867 29.8141 18.94C29.1074 18.7933 28.4274 18.5867 27.7741 18.32C27.1208 18.04 26.5208 17.7067 25.9741 17.32L27.1941 14.94C27.3141 15.06 27.5274 15.22 27.8341 15.42C28.1408 15.6067 28.5141 15.8 28.9541 16C29.3941 16.1867 29.8741 16.3467 30.3941 16.48C30.9141 16.6133 31.4408 16.68 31.9741 16.68C32.7208 16.68 33.2874 16.5533 33.6741 16.3C34.0608 16.0467 34.2541 15.6867 34.2541 15.22C34.2541 14.7933 34.1008 14.46 33.7941 14.22C33.4874 13.98 33.0608 13.7733 32.5141 13.6C31.9674 13.4133 31.3208 13.2133 30.5741 13C29.6808 12.7467 28.9341 12.4667 28.3341 12.16C27.7341 11.84 27.2874 11.44 26.9941 10.96C26.7008 10.48 26.5541 9.88 26.5541 9.16C26.5541 8.18667 26.7808 7.37333 27.2341 6.72C27.7008 6.05333 28.3274 5.55333 29.1141 5.22C29.9008 4.87333 30.7741 4.7 31.7341 4.7C32.4008 4.7 33.0274 4.77333 33.6141 4.92C34.2141 5.06667 34.7741 5.26 35.2941 5.5C35.8141 5.74 36.2808 6 36.6941 6.28L35.4741 8.52ZM38.2607 15.9C38.2607 15.22 38.4473 14.6267 38.8207 14.12C39.2073 13.6 39.7407 13.2 40.4207 12.92C41.1007 12.64 41.8807 12.5 42.7607 12.5C43.2007 12.5 43.6473 12.5333 44.1007 12.6C44.554 12.6667 44.9473 12.7733 45.2807 12.92V12.36C45.2807 11.6933 45.0807 11.18 44.6807 10.82C44.294 10.46 43.714 10.28 42.9407 10.28C42.3673 10.28 41.8207 10.38 41.3007 10.58C40.7807 10.78 40.234 11.0733 39.6607 11.46L38.8007 9.7C39.494 9.24667 40.2007 8.90667 40.9207 8.68C41.654 8.45333 42.4207 8.34 43.2207 8.34C44.714 8.34 45.874 8.71333 46.7007 9.46C47.5407 10.2067 47.9607 11.2733 47.9607 12.66V16C47.9607 16.28 48.0073 16.48 48.1007 16.6C48.2073 16.72 48.374 16.7933 48.6007 16.82V19C48.3607 19.04 48.1407 19.0733 47.9407 19.1C47.754 19.1267 47.594 19.14 47.4607 19.14C46.9273 19.14 46.5207 19.02 46.2407 18.78C45.974 18.54 45.8073 18.2467 45.7407 17.9L45.6807 17.36C45.2273 17.9467 44.6607 18.4 43.9807 18.72C43.3007 19.04 42.6073 19.2 41.9007 19.2C41.2073 19.2 40.5807 19.06 40.0207 18.78C39.474 18.4867 39.0407 18.0933 38.7207 17.6C38.414 17.0933 38.2607 16.5267 38.2607 15.9ZM44.7807 16.44C44.9273 16.28 45.0473 16.12 45.1407 15.96C45.234 15.8 45.2807 15.6533 45.2807 15.52V14.46C44.9607 14.3267 44.614 14.2267 44.2407 14.16C43.8673 14.08 43.514 14.04 43.1807 14.04C42.4873 14.04 41.914 14.1933 41.4607 14.5C41.0207 14.7933 40.8007 15.1867 40.8007 15.68C40.8007 15.9467 40.874 16.2 41.0207 16.44C41.1673 16.68 41.3807 16.8733 41.6607 17.02C41.9407 17.1667 42.274 17.24 42.6607 17.24C43.0607 17.24 43.454 17.1667 43.8407 17.02C44.2273 16.86 44.5407 16.6667 44.7807 16.44ZM50.365 15.08V8.52H53.045V14.5C53.045 15.3 53.1917 15.9067 53.485 16.32C53.7784 16.72 54.2117 16.92 54.785 16.92C55.1317 16.92 55.4717 16.8533 55.805 16.72C56.1517 16.5733 56.465 16.36 56.745 16.08C57.0384 15.8 57.285 15.4467 57.485 15.02V8.52H60.165V16C60.165 16.28 60.2117 16.48 60.305 16.6C60.4117 16.72 60.5784 16.7933 60.805 16.82V19C60.5384 19.04 60.3117 19.0667 60.125 19.08C59.9517 19.1067 59.7917 19.12 59.645 19.12C59.165 19.12 58.7717 19.0133 58.465 18.8C58.1717 18.5733 57.9984 18.2667 57.945 17.88L57.885 17.04C57.4184 17.7467 56.8184 18.2867 56.085 18.66C55.3517 19.02 54.545 19.2 53.665 19.2C52.585 19.2 51.765 18.8533 51.205 18.16C50.645 17.4533 50.365 16.4267 50.365 15.08ZM62.1883 13.76C62.1883 12.7467 62.3883 11.8333 62.7883 11.02C63.1883 10.1933 63.7417 9.54 64.4483 9.06C65.155 8.58 65.9617 8.34 66.8683 8.34C67.6417 8.34 68.335 8.53333 68.9483 8.92C69.575 9.29333 70.0617 9.77333 70.4083 10.36V4.4H73.0883V16C73.0883 16.28 73.135 16.48 73.2283 16.6C73.3217 16.72 73.4817 16.7933 73.7083 16.82V19C73.2417 19.0933 72.8617 19.14 72.5683 19.14C72.0883 19.14 71.6883 19.02 71.3683 18.78C71.0617 18.54 70.8883 18.2267 70.8483 17.84L70.8083 17.18C70.4217 17.8333 69.895 18.3333 69.2283 18.68C68.575 19.0267 67.8883 19.2 67.1683 19.2C66.4483 19.2 65.7817 19.06 65.1683 18.78C64.5683 18.5 64.0417 18.1133 63.5883 17.62C63.1483 17.1267 62.8017 16.5533 62.5483 15.9C62.3083 15.2333 62.1883 14.52 62.1883 13.76ZM70.4083 15.16V12.66C70.275 12.2733 70.0617 11.9267 69.7683 11.62C69.475 11.3133 69.1483 11.0733 68.7883 10.9C68.4283 10.7133 68.0683 10.62 67.7083 10.62C67.295 10.62 66.9217 10.7067 66.5883 10.88C66.255 11.0533 65.9617 11.2867 65.7083 11.58C65.4683 11.8733 65.2817 12.2133 65.1483 12.6C65.0283 12.9867 64.9683 13.3933 64.9683 13.82C64.9683 14.2467 65.035 14.6533 65.1683 15.04C65.315 15.4133 65.5217 15.74 65.7883 16.02C66.055 16.3 66.3617 16.52 66.7083 16.68C67.0683 16.84 67.455 16.92 67.8683 16.92C68.1217 16.92 68.375 16.88 68.6283 16.8C68.895 16.7067 69.1417 16.5867 69.3683 16.44C69.6083 16.28 69.815 16.0933 69.9883 15.88C70.175 15.6533 70.315 15.4133 70.4083 15.16ZM74.9989 15.9C74.9989 15.22 75.1856 14.6267 75.5589 14.12C75.9456 13.6 76.4789 13.2 77.1589 12.92C77.8389 12.64 78.6189 12.5 79.4989 12.5C79.9389 12.5 80.3856 12.5333 80.8389 12.6C81.2923 12.6667 81.6856 12.7733 82.0189 12.92V12.36C82.0189 11.6933 81.8189 11.18 81.4189 10.82C81.0323 10.46 80.4523 10.28 79.6789 10.28C79.1056 10.28 78.5589 10.38 78.0389 10.58C77.5189 10.78 76.9723 11.0733 76.3989 11.46L75.5389 9.7C76.2323 9.24667 76.9389 8.90667 77.6589 8.68C78.3923 8.45333 79.1589 8.34 79.9589 8.34C81.4523 8.34 82.6123 8.71333 83.4389 9.46C84.2789 10.2067 84.6989 11.2733 84.6989 12.66V16C84.6989 16.28 84.7456 16.48 84.8389 16.6C84.9456 16.72 85.1123 16.7933 85.3389 16.82V19C85.0989 19.04 84.8789 19.0733 84.6789 19.1C84.4923 19.1267 84.3323 19.14 84.1989 19.14C83.6656 19.14 83.2589 19.02 82.9789 18.78C82.7123 18.54 82.5456 18.2467 82.4789 17.9L82.4189 17.36C81.9656 17.9467 81.3989 18.4 80.7189 18.72C80.0389 19.04 79.3456 19.2 78.6389 19.2C77.9456 19.2 77.3189 19.06 76.7589 18.78C76.2123 18.4867 75.7789 18.0933 75.4589 17.6C75.1523 17.0933 74.9989 16.5267 74.9989 15.9ZM81.5189 16.44C81.6656 16.28 81.7856 16.12 81.8789 15.96C81.9723 15.8 82.0189 15.6533 82.0189 15.52V14.46C81.6989 14.3267 81.3523 14.2267 80.9789 14.16C80.6056 14.08 80.2523 14.04 79.9189 14.04C79.2256 14.04 78.6523 14.1933 78.1989 14.5C77.7589 14.7933 77.5389 15.1867 77.5389 15.68C77.5389 15.9467 77.6123 16.2 77.7589 16.44C77.9056 16.68 78.1189 16.8733 78.3989 17.02C78.6789 17.1667 79.0123 17.24 79.3989 17.24C79.7989 17.24 80.1923 17.1667 80.5789 17.02C80.9656 16.86 81.2789 16.6667 81.5189 16.44ZM92.0833 19.2C91.23 19.2 90.4633 19.06 89.7833 18.78C89.1033 18.4867 88.5233 18.0867 88.0433 17.58C87.5633 17.06 87.19 16.4733 86.9233 15.82C86.67 15.1667 86.5433 14.48 86.5433 13.76C86.5433 12.7733 86.7633 11.8733 87.2033 11.06C87.6567 10.2333 88.2967 9.57333 89.1233 9.08C89.95 8.58667 90.93 8.34 92.0633 8.34C93.1967 8.34 94.17 8.58667 94.9833 9.08C95.7967 9.57333 96.4033 10.22 96.8033 11.02L94.1833 11.82C93.9567 11.4333 93.6567 11.14 93.2833 10.94C92.91 10.7267 92.4967 10.62 92.0433 10.62C91.5367 10.62 91.07 10.7533 90.6433 11.02C90.23 11.2733 89.9033 11.64 89.6633 12.12C89.4233 12.5867 89.3033 13.1333 89.3033 13.76C89.3033 14.3733 89.4233 14.92 89.6633 15.4C89.9167 15.8667 90.25 16.24 90.6633 16.52C91.0767 16.7867 91.5367 16.92 92.0433 16.92C92.3633 16.92 92.6633 16.8667 92.9433 16.76C93.2367 16.6533 93.4967 16.5067 93.7233 16.32C93.95 16.1333 94.1167 15.92 94.2233 15.68L96.8433 16.48C96.6033 17 96.25 17.4667 95.7833 17.88C95.33 18.2933 94.79 18.62 94.1633 18.86C93.55 19.0867 92.8567 19.2 92.0833 19.2ZM91.8033 23.02C91.4433 23.02 91.0567 22.9667 90.6433 22.86C90.23 22.7667 89.8167 22.62 89.4033 22.42L90.0833 21C90.2833 21.1333 90.4833 21.2333 90.6833 21.3C90.8967 21.38 91.1167 21.42 91.3433 21.42C91.69 21.42 91.9567 21.34 92.1433 21.18C92.3433 21.0333 92.4433 20.8133 92.4433 20.52C92.4433 20.24 92.3433 19.9733 92.1433 19.72C91.9567 19.48 91.6833 19.24 91.3233 19L92.2233 18.42C92.7567 18.7667 93.1967 19.14 93.5433 19.54C93.89 19.9533 94.0633 20.4533 94.0633 21.04C94.0633 21.6 93.87 22.0667 93.4833 22.44C93.11 22.8267 92.55 23.02 91.8033 23.02ZM103.235 19.2C102.381 19.2 101.615 19.06 100.935 18.78C100.255 18.4867 99.6747 18.0867 99.1947 17.58C98.7281 17.0733 98.3681 16.4933 98.1147 15.84C97.8614 15.1867 97.7347 14.5 97.7347 13.78C97.7347 13.0467 97.8614 12.3533 98.1147 11.7C98.3681 11.0467 98.7281 10.4667 99.1947 9.96C99.6747 9.45333 100.255 9.06 100.935 8.78C101.615 8.48667 102.381 8.34 103.235 8.34C104.088 8.34 104.848 8.48667 105.515 8.78C106.195 9.06 106.775 9.45333 107.255 9.96C107.735 10.4667 108.095 11.0467 108.335 11.7C108.588 12.3533 108.715 13.0467 108.715 13.78C108.715 14.5 108.588 15.1867 108.335 15.84C108.095 16.4933 107.735 17.0733 107.255 17.58C106.788 18.0867 106.215 18.4867 105.535 18.78C104.855 19.06 104.088 19.2 103.235 19.2ZM100.495 13.78C100.495 14.3933 100.615 14.94 100.855 15.42C101.095 15.8867 101.421 16.2533 101.835 16.52C102.248 16.7867 102.715 16.92 103.235 16.92C103.741 16.92 104.201 16.7867 104.615 16.52C105.028 16.24 105.355 15.8667 105.595 15.4C105.848 14.92 105.975 14.3733 105.975 13.76C105.975 13.16 105.848 12.62 105.595 12.14C105.355 11.66 105.028 11.2867 104.615 11.02C104.201 10.7533 103.741 10.62 103.235 10.62C102.715 10.62 102.248 10.76 101.835 11.04C101.421 11.3067 101.095 11.68 100.855 12.16C100.615 12.6267 100.495 13.1667 100.495 13.78ZM104.535 6.96C104.135 6.96 103.788 6.88667 103.495 6.74C103.215 6.58 102.955 6.42667 102.715 6.28C102.475 6.13333 102.208 6.06 101.915 6.06C101.621 6.06 101.401 6.14 101.255 6.3C101.121 6.44667 101.035 6.6 100.995 6.76C100.968 6.92 100.955 7.00667 100.955 7.02H99.4747C99.4747 6.9 99.5147 6.7 99.5947 6.42C99.6747 6.14 99.8014 5.85333 99.9747 5.56C100.161 5.25333 100.401 4.99333 100.695 4.78C101.001 4.56667 101.375 4.46 101.815 4.46C102.228 4.46 102.568 4.54 102.835 4.7C103.101 4.86 103.355 5.02 103.595 5.18C103.848 5.32667 104.135 5.4 104.455 5.4C104.775 5.4 105.008 5.32 105.155 5.16C105.301 5 105.395 4.84 105.435 4.68C105.488 4.52 105.515 4.42667 105.515 4.4H106.995C106.995 4.49333 106.955 4.67333 106.875 4.94C106.795 5.20667 106.655 5.5 106.455 5.82C106.268 6.12667 106.015 6.39333 105.695 6.62C105.388 6.84667 105.001 6.96 104.535 6.96ZM115.384 19.2C114.544 19.2 113.784 19.06 113.104 18.78C112.424 18.4867 111.844 18.0933 111.364 17.6C110.884 17.0933 110.51 16.52 110.244 15.88C109.99 15.2267 109.864 14.54 109.864 13.82C109.864 12.82 110.084 11.9067 110.524 11.08C110.977 10.2533 111.617 9.59333 112.444 9.1C113.284 8.59333 114.27 8.34 115.404 8.34C116.55 8.34 117.53 8.59333 118.344 9.1C119.157 9.59333 119.777 10.2533 120.204 11.08C120.644 11.8933 120.864 12.7733 120.864 13.72C120.864 13.88 120.857 14.0467 120.844 14.22C120.83 14.38 120.817 14.5133 120.804 14.62H112.704C112.757 15.1533 112.91 15.62 113.164 16.02C113.43 16.42 113.764 16.7267 114.164 16.94C114.577 17.14 115.017 17.24 115.484 17.24C116.017 17.24 116.517 17.1133 116.984 16.86C117.464 16.5933 117.79 16.2467 117.964 15.82L120.264 16.46C120.01 16.9933 119.644 17.4667 119.164 17.88C118.697 18.2933 118.144 18.62 117.504 18.86C116.864 19.0867 116.157 19.2 115.384 19.2ZM112.644 12.92H118.124C118.07 12.3867 117.917 11.9267 117.664 11.54C117.424 11.14 117.104 10.8333 116.704 10.62C116.304 10.3933 115.857 10.28 115.364 10.28C114.884 10.28 114.444 10.3933 114.044 10.62C113.657 10.8333 113.337 11.14 113.084 11.54C112.844 11.9267 112.697 12.3867 112.644 12.92ZM126.356 19.2C125.463 19.2 124.61 19.0533 123.796 18.76C122.983 18.4667 122.283 18.0333 121.696 17.46L122.656 15.72C123.283 16.2267 123.896 16.6 124.496 16.84C125.11 17.08 125.696 17.2 126.256 17.2C126.776 17.2 127.19 17.1067 127.496 16.92C127.816 16.7333 127.976 16.4533 127.976 16.08C127.976 15.8267 127.89 15.6333 127.716 15.5C127.543 15.3533 127.29 15.2267 126.956 15.12C126.636 15.0133 126.243 14.8933 125.776 14.76C125.003 14.5067 124.356 14.26 123.836 14.02C123.316 13.78 122.923 13.48 122.656 13.12C122.403 12.7467 122.276 12.2733 122.276 11.7C122.276 11.0067 122.45 10.4133 122.796 9.92C123.156 9.41333 123.65 9.02 124.276 8.74C124.916 8.46 125.663 8.32 126.516 8.32C127.263 8.32 127.97 8.44 128.636 8.68C129.303 8.90667 129.91 9.28 130.456 9.8L129.376 11.5C128.843 11.0867 128.336 10.7867 127.856 10.6C127.376 10.4 126.89 10.3 126.396 10.3C126.116 10.3 125.85 10.3333 125.596 10.4C125.356 10.4667 125.156 10.58 124.996 10.74C124.85 10.8867 124.776 11.1 124.776 11.38C124.776 11.6333 124.843 11.8333 124.976 11.98C125.123 12.1133 125.336 12.2333 125.616 12.34C125.91 12.4467 126.263 12.5667 126.676 12.7C127.516 12.94 128.223 13.1867 128.796 13.44C129.383 13.6933 129.823 14.0067 130.116 14.38C130.41 14.74 130.556 15.24 130.556 15.88C130.556 16.92 130.176 17.7333 129.416 18.32C128.656 18.9067 127.636 19.2 126.356 19.2ZM132.899 13.66V4.66H135.579V13.66H132.899ZM132.899 19V15.98H135.579V19H132.899Z" fill="#7B4AE2"/>
</svg>
